<svg width="27" height="29" viewBox="0 0 27 29" fill="none" xmlns="http://www.w3.org/2000/svg">
<path d="M25.9229 27.4808L1.519 27.4808L1.51901 17.4615C1.51901 15.2524 3.30987 13.4615 5.51901 13.4615L21.9229 13.4615C24.132 13.4615 25.9229 15.2524 25.9229 17.4615L25.9229 27.4808Z" fill="#57CBDA"/>
<path d="M26.0287 14.0851C25.811 14.0851 25.6346 14.2621 25.6346 14.4804V26.394C25.6346 26.8436 25.27 27.2094 24.8218 27.2094H6.74103C6.5234 27.2094 6.34699 27.3864 6.34699 27.6047C6.34699 27.823 6.5234 28 6.74103 28H24.8218C25.7046 28 26.4227 27.2795 26.4227 26.394V14.4804C26.4228 14.2621 26.2463 14.0851 26.0287 14.0851Z" fill="#212B36"/>
<path fill-rule="evenodd" clip-rule="evenodd" d="M16.7853 17.7277C17.0601 17.998 17.2742 18.3226 17.4219 18.6924C17.5676 19.0583 17.6415 19.4675 17.6415 19.9089C17.6415 20.4442 17.5329 20.931 17.3189 21.3555C17.1058 21.7777 16.8061 22.1392 16.428 22.43C16.0591 22.7138 15.6214 22.9339 15.1271 23.0842C14.6411 23.2318 14.1083 23.3068 13.5435 23.3068C12.8677 23.3068 12.2685 23.2243 11.7628 23.0617C11.2534 22.898 10.8186 22.6815 10.4704 22.4182C10.1127 22.1479 9.83468 21.8331 9.64417 21.4829C9.4552 21.1354 9.34302 20.7842 9.3108 20.4393C9.29087 20.2014 9.37424 19.9893 9.5453 19.8382C9.69359 19.7066 9.87605 19.6367 10.0723 19.6367H11.1519C11.3476 19.6367 11.5218 19.7074 11.6556 19.8411C11.7405 19.9265 11.8209 20.0355 11.9024 20.1754L11.9146 20.1982C11.9515 20.2723 12.0025 20.3437 12.066 20.4106C12.1264 20.4743 12.2128 20.5354 12.323 20.5922C12.4405 20.653 12.5965 20.703 12.787 20.7412C12.9878 20.7816 13.2422 20.8021 13.5435 20.8021C14.0189 20.8021 14.3993 20.7107 14.674 20.5307C14.9049 20.3793 15.0079 20.1876 15.0079 19.9089C15.0079 19.6448 14.9181 19.4852 14.7078 19.3755C14.4244 19.2277 14.0328 19.1528 13.5436 19.1528H12.4093C12.2038 19.1528 12.0175 19.0747 11.8705 18.9269C11.724 18.7803 11.6461 18.5934 11.6461 18.3871V17.4136C11.6461 17.2255 11.7107 17.0438 11.8331 16.8879C11.91 16.7903 11.9857 16.7038 12.0586 16.6304L13.3344 15.2866H10.4825C10.2767 15.2866 10.0904 15.2084 9.94354 15.0606C9.79709 14.9141 9.71924 14.7272 9.71924 14.5209V13.5475C9.71924 13.3416 9.79699 13.1548 9.94407 13.0073C10.091 12.8598 10.2772 12.7818 10.4825 12.7818H16.4682C16.6729 12.7818 16.8589 12.8597 17.0062 13.0069C17.1539 13.1553 17.2314 13.342 17.2314 13.5475V14.5209C17.2314 14.7096 17.1667 14.8916 17.044 15.0472C16.9686 15.1432 16.8929 15.2296 16.8193 15.3039L15.313 16.8978C15.4875 16.9487 15.6546 17.0091 15.8132 17.0788C16.1883 17.2438 16.5152 17.4621 16.7853 17.7277ZM15.9479 21.8022C16.2315 21.5841 16.4559 21.3137 16.6151 20.9983C16.7728 20.6856 16.8528 20.319 16.8528 19.9088C16.8528 19.5684 16.7979 19.258 16.6896 18.9862C16.5829 18.7191 16.4292 18.4855 16.2329 18.2924C16.0314 18.0942 15.7836 17.9296 15.4965 17.8033C15.1989 17.6726 14.8598 17.5811 14.489 17.5315L13.7241 17.4291L16.2574 14.7487C16.3105 14.6953 16.3669 14.6308 16.425 14.557C16.4427 14.5345 16.4427 14.5253 16.4427 14.5209V13.5728H10.5076V14.4955H15.174L12.6198 17.1859C12.5673 17.2386 12.5108 17.3032 12.452 17.3779C12.4345 17.4002 12.4345 17.4096 12.4345 17.4136V18.3617H13.5435C14.1605 18.3617 14.6746 18.4667 15.0715 18.6736C15.5457 18.9211 15.7964 19.3482 15.7964 19.9089C15.7964 20.4526 15.5574 20.8965 15.1053 21.1928C14.7003 21.4584 14.1747 21.5931 13.5435 21.5931C13.1852 21.5931 12.8871 21.5682 12.6323 21.5168C12.3664 21.4636 12.147 21.3912 11.9621 21.2955C11.7735 21.1982 11.6162 21.0839 11.4949 20.9561C11.381 20.8361 11.287 20.7045 11.2158 20.5648C11.1761 20.4976 11.1446 20.4545 11.1226 20.4278H10.1029C10.1321 20.6448 10.2105 20.8726 10.3364 21.1041C10.4727 21.3547 10.6774 21.5843 10.945 21.7865C11.2224 21.9963 11.5784 22.1719 12.0033 22.3084C12.4313 22.446 12.9495 22.5157 13.5435 22.5157C14.0308 22.5157 14.4865 22.4522 14.8982 22.3271C15.3014 22.2046 15.6546 22.0279 15.9479 21.8022Z" fill="#212B36"/>
<path fill-rule="evenodd" clip-rule="evenodd" d="M23.3131 3.4116H24.8218C25.7046 3.4116 26.4227 4.13205 26.4226 5.01762V11.6519C26.4226 11.8702 26.2462 12.0472 26.0286 12.0472C25.811 12.0472 25.6346 11.8702 25.6346 11.6519V8.65598H1.78813V26.394C1.78813 26.8436 2.15274 27.2094 2.60092 27.2094H3.93885C4.15648 27.2094 4.33289 27.3864 4.33289 27.6047C4.33289 27.823 4.15648 28 3.93885 28H2.60092C1.71817 28 1 27.2795 1 26.394V5.01757C1 4.13205 1.71817 3.4116 2.60092 3.4116H4.10964V1.65886C4.10964 1.29558 4.40428 1 4.76641 1H6.3688C6.73093 1 7.02557 1.29558 7.02557 1.65886V3.4116H9.53884V1.65886C9.53884 1.29558 9.83348 1 10.1956 1H11.798C12.1601 1 12.4547 1.29558 12.4548 1.65886V3.4116H14.968V1.65886C14.968 1.29558 15.2627 1 15.6248 1H17.2272C17.5893 1 17.8839 1.29558 17.8839 1.65886V3.4116H20.3972V1.65886C20.3972 1.29558 20.6918 1 21.054 1H22.6563C23.0185 1 23.3131 1.29558 23.3131 1.65886V3.4116ZM22.525 1.79059H21.1853V5.82319H22.525V1.79059ZM15.7561 1.79059H17.0958V5.82319H15.7561V1.79059ZM11.6666 1.79059H10.3269V5.82319H11.6666V1.79059ZM4.89777 1.79059H6.23744V5.82319H4.89777V1.79059ZM1.78813 7.86538H25.6347V5.01762C25.6347 4.56801 25.2701 4.20224 24.8219 4.20224H23.3132V5.95503C23.3132 6.31831 23.0185 6.61389 22.6564 6.61389H21.054C20.6919 6.61389 20.3972 6.31831 20.3972 5.95503V4.20224H17.884V5.95503C17.884 6.31831 17.5893 6.61389 17.2272 6.61389H15.6248C15.2627 6.61389 14.968 6.31831 14.968 5.95503V4.20224H12.4548V5.95503C12.4548 6.31831 12.1601 6.61389 11.798 6.61389H10.1956C9.83347 6.61389 9.53884 6.31831 9.53884 5.95503V4.20224H7.02557V5.95503C7.02557 6.31831 6.73093 6.61389 6.3688 6.61389H4.76641C4.40428 6.61389 4.10964 6.31831 4.10964 5.95503V4.20224H2.60092C2.15279 4.20224 1.78813 4.56801 1.78813 5.01762V7.86538Z" fill="#212B36"/>
<path d="M26.0287 14.0851C25.811 14.0851 25.6346 14.2621 25.6346 14.4804V26.394C25.6346 26.8436 25.27 27.2094 24.8218 27.2094H6.74103C6.5234 27.2094 6.34699 27.3864 6.34699 27.6047C6.34699 27.823 6.5234 28 6.74103 28H24.8218C25.7046 28 26.4227 27.2795 26.4227 26.394V14.4804C26.4228 14.2621 26.2463 14.0851 26.0287 14.0851Z" stroke="#212B36" stroke-width="0.567273"/>
<path fill-rule="evenodd" clip-rule="evenodd" d="M16.7853 17.7277C17.0601 17.998 17.2742 18.3226 17.4219 18.6924C17.5676 19.0583 17.6415 19.4675 17.6415 19.9089C17.6415 20.4442 17.5329 20.931 17.3189 21.3555C17.1058 21.7777 16.8061 22.1392 16.428 22.43C16.0591 22.7138 15.6214 22.9339 15.1271 23.0842C14.6411 23.2318 14.1083 23.3068 13.5435 23.3068C12.8677 23.3068 12.2685 23.2243 11.7628 23.0617C11.2534 22.898 10.8186 22.6815 10.4704 22.4182C10.1127 22.1479 9.83468 21.8331 9.64417 21.4829C9.4552 21.1354 9.34302 20.7842 9.3108 20.4393C9.29087 20.2014 9.37424 19.9893 9.5453 19.8382C9.69359 19.7066 9.87605 19.6367 10.0723 19.6367H11.1519C11.3476 19.6367 11.5218 19.7074 11.6556 19.8411C11.7405 19.9265 11.8209 20.0355 11.9024 20.1754L11.9146 20.1982C11.9515 20.2723 12.0025 20.3437 12.066 20.4106C12.1264 20.4743 12.2128 20.5354 12.323 20.5922C12.4405 20.653 12.5965 20.703 12.787 20.7412C12.9878 20.7816 13.2422 20.8021 13.5435 20.8021C14.0189 20.8021 14.3993 20.7107 14.674 20.5307C14.9049 20.3793 15.0079 20.1876 15.0079 19.9089C15.0079 19.6448 14.9181 19.4852 14.7078 19.3755C14.4244 19.2277 14.0328 19.1528 13.5436 19.1528H12.4093C12.2038 19.1528 12.0175 19.0747 11.8705 18.9269C11.724 18.7803 11.6461 18.5934 11.6461 18.3871V17.4136C11.6461 17.2255 11.7107 17.0438 11.8331 16.8879C11.91 16.7903 11.9857 16.7038 12.0586 16.6304L13.3344 15.2866H10.4825C10.2767 15.2866 10.0904 15.2084 9.94354 15.0606C9.79709 14.9141 9.71924 14.7272 9.71924 14.5209V13.5475C9.71924 13.3416 9.79699 13.1548 9.94407 13.0073C10.091 12.8598 10.2772 12.7818 10.4825 12.7818H16.4682C16.6729 12.7818 16.8589 12.8597 17.0062 13.0069C17.1539 13.1553 17.2314 13.342 17.2314 13.5475V14.5209C17.2314 14.7096 17.1667 14.8916 17.044 15.0472C16.9686 15.1432 16.8929 15.2296 16.8193 15.3039L15.313 16.8978C15.4875 16.9487 15.6546 17.0091 15.8132 17.0788C16.1883 17.2438 16.5152 17.4621 16.7853 17.7277ZM15.9479 21.8022C16.2315 21.5841 16.4559 21.3137 16.6151 20.9983C16.7728 20.6856 16.8528 20.319 16.8528 19.9088C16.8528 19.5684 16.7979 19.258 16.6896 18.9862C16.5829 18.7191 16.4292 18.4855 16.2329 18.2924C16.0314 18.0942 15.7836 17.9296 15.4965 17.8033C15.1989 17.6726 14.8598 17.5811 14.489 17.5315L13.7241 17.4291L16.2574 14.7487C16.3105 14.6953 16.3669 14.6308 16.425 14.557C16.4427 14.5345 16.4427 14.5253 16.4427 14.5209V13.5728H10.5076V14.4955H15.174L12.6198 17.1859C12.5673 17.2386 12.5108 17.3032 12.452 17.3779C12.4345 17.4002 12.4345 17.4096 12.4345 17.4136V18.3617H13.5435C14.1605 18.3617 14.6746 18.4667 15.0715 18.6736C15.5457 18.9211 15.7964 19.3482 15.7964 19.9089C15.7964 20.4526 15.5574 20.8965 15.1053 21.1928C14.7003 21.4584 14.1747 21.5931 13.5435 21.5931C13.1852 21.5931 12.8871 21.5682 12.6323 21.5168C12.3664 21.4636 12.147 21.3912 11.9621 21.2955C11.7735 21.1982 11.6162 21.0839 11.4949 20.9561C11.381 20.8361 11.287 20.7045 11.2158 20.5648C11.1761 20.4976 11.1446 20.4545 11.1226 20.4278H10.1029C10.1321 20.6448 10.2105 20.8726 10.3364 21.1041C10.4727 21.3547 10.6774 21.5843 10.945 21.7865C11.2224 21.9963 11.5784 22.1719 12.0033 22.3084C12.4313 22.446 12.9495 22.5157 13.5435 22.5157C14.0308 22.5157 14.4865 22.4522 14.8982 22.3271C15.3014 22.2046 15.6546 22.0279 15.9479 21.8022Z" stroke="#212B36" stroke-width="0.567273"/>
<path fill-rule="evenodd" clip-rule="evenodd" d="M23.3131 3.4116H24.8218C25.7046 3.4116 26.4227 4.13205 26.4226 5.01762V11.6519C26.4226 11.8702 26.2462 12.0472 26.0286 12.0472C25.811 12.0472 25.6346 11.8702 25.6346 11.6519V8.65598H1.78813V26.394C1.78813 26.8436 2.15274 27.2094 2.60092 27.2094H3.93885C4.15648 27.2094 4.33289 27.3864 4.33289 27.6047C4.33289 27.823 4.15648 28 3.93885 28H2.60092C1.71817 28 1 27.2795 1 26.394V5.01757C1 4.13205 1.71817 3.4116 2.60092 3.4116H4.10964V1.65886C4.10964 1.29558 4.40428 1 4.76641 1H6.3688C6.73093 1 7.02557 1.29558 7.02557 1.65886V3.4116H9.53884V1.65886C9.53884 1.29558 9.83348 1 10.1956 1H11.798C12.1601 1 12.4547 1.29558 12.4548 1.65886V3.4116H14.968V1.65886C14.968 1.29558 15.2627 1 15.6248 1H17.2272C17.5893 1 17.8839 1.29558 17.8839 1.65886V3.4116H20.3972V1.65886C20.3972 1.29558 20.6918 1 21.054 1H22.6563C23.0185 1 23.3131 1.29558 23.3131 1.65886V3.4116ZM22.525 1.79059H21.1853V5.82319H22.525V1.79059ZM15.7561 1.79059H17.0958V5.82319H15.7561V1.79059ZM11.6666 1.79059H10.3269V5.82319H11.6666V1.79059ZM4.89777 1.79059H6.23744V5.82319H4.89777V1.79059ZM1.78813 7.86538H25.6347V5.01762C25.6347 4.56801 25.2701 4.20224 24.8219 4.20224H23.3132V5.95503C23.3132 6.31831 23.0185 6.61389 22.6564 6.61389H21.054C20.6919 6.61389 20.3972 6.31831 20.3972 5.95503V4.20224H17.884V5.95503C17.884 6.31831 17.5893 6.61389 17.2272 6.61389H15.6248C15.2627 6.61389 14.968 6.31831 14.968 5.95503V4.20224H12.4548V5.95503C12.4548 6.31831 12.1601 6.61389 11.798 6.61389H10.1956C9.83347 6.61389 9.53884 6.31831 9.53884 5.95503V4.20224H7.02557V5.95503C7.02557 6.31831 6.73093 6.61389 6.3688 6.61389H4.76641C4.40428 6.61389 4.10964 6.31831 4.10964 5.95503V4.20224H2.60092C2.15279 4.20224 1.78813 4.56801 1.78813 5.01762V7.86538Z" stroke="#212B36" stroke-width="0.567273"/>
</svg>
