<svg width="32" height="33" viewBox="0 0 32 33" fill="none" xmlns="http://www.w3.org/2000/svg">
<rect x="11.7144" y="3.46428" width="15.4286" height="24.1071" fill="#57CBDA"/>
<path fill-rule="evenodd" clip-rule="evenodd" d="M9.11829 4.54732H26.0598V19.4927C26.0598 20.0581 26.5181 20.5164 27.0835 20.5164C27.6489 20.5164 28.1071 20.0581 28.1071 19.4927V3.52366C28.1071 2.95825 27.6489 2.5 27.0835 2.5H9.11829C7.42486 2.5 6.04732 3.87754 6.04732 5.57097V7.07767C4.85591 7.50033 4 8.63815 4 9.9727C4 11.3073 4.85571 12.4457 6.04732 12.8681V13.2198C4.85591 13.6423 4 14.7801 4 16.1146C4 17.4492 4.85571 18.5876 6.04732 19.0103V19.3618C4.85591 19.7842 4 20.922 4 22.2566C4 23.5912 4.85571 24.7296 6.04732 25.1522V25.6347C6.04732 27.3281 7.42486 28.7056 9.11829 28.7056H27.0835C27.6489 28.7056 28.1071 28.2474 28.1071 27.682V24.611C28.1071 24.0456 27.6489 23.5874 27.0835 23.5874C26.5181 23.5874 26.0598 24.0456 26.0598 24.611V26.6583H9.11829C8.55388 26.6583 8.09463 26.1991 8.09463 25.6347V24.3039C8.09463 23.7385 7.63638 23.2803 7.07097 23.2803C6.50656 23.2803 6.04732 22.821 6.04732 22.2566C6.04732 21.6922 6.50656 21.2329 7.07097 21.2329H9.11829C9.6837 21.2329 10.1419 20.7747 10.1419 20.2093C10.1419 19.6439 9.6837 19.1856 9.11829 19.1856H8.09463V18.162C8.09463 17.5966 7.63638 17.1383 7.07097 17.1383C6.50656 17.1383 6.04732 16.6791 6.04732 16.1146C6.04732 15.5502 6.50656 15.091 7.07097 15.091H9.11829C9.6837 15.091 10.1419 14.6327 10.1419 14.0673C10.1419 13.5019 9.6837 13.0437 9.11829 13.0437H8.09463V12.02C8.09463 11.4546 7.63638 10.9964 7.07097 10.9964C6.50656 10.9964 6.04732 10.5371 6.04732 9.9727C6.04732 9.40829 6.50656 8.94904 7.07097 8.94904H9.11829C9.6837 8.94904 10.1419 8.4908 10.1419 7.92539C10.1419 7.35998 9.6837 6.90173 9.11829 6.90173H8.09463V5.57097C8.09463 5.00656 8.55388 4.54732 9.11829 4.54732ZM14.2875 13.146C14.2875 13.7714 14.4759 14.3534 14.7982 14.8393C13.4842 15.5728 12.4953 16.8542 12.1746 18.4047C12.0669 18.9259 12.1974 19.4611 12.5327 19.873C12.8658 20.2819 13.3586 20.5164 13.8853 20.5164H20.8317C21.356 20.5164 21.8476 20.2817 22.1809 19.8724C22.519 19.4573 22.6507 18.9189 22.5424 18.3951C22.5374 18.3711 22.5316 18.3475 22.5252 18.3243C22.1875 16.81 21.2104 15.5598 19.9191 14.8389C20.2411 14.3532 20.4295 13.7712 20.4295 13.146C20.4295 11.4526 19.0519 10.0751 17.3585 10.0751C15.6651 10.0751 14.2875 11.4526 14.2875 13.146ZM17.3586 14.1697C17.923 14.1697 18.3823 13.7105 18.3823 13.146C18.3823 12.5816 17.923 12.1224 17.3586 12.1224C16.7942 12.1224 16.335 12.5816 16.335 13.146C16.335 13.7105 16.7942 14.1697 17.3586 14.1697ZM17.3589 16.217C18.7678 16.217 20.013 17.1449 20.4449 18.4691H14.2729C14.7048 17.1449 15.95 16.217 17.3589 16.217Z" fill="#212B36"/>
</svg>
