<svg width="27" height="27" viewBox="0 0 27 27" fill="none" xmlns="http://www.w3.org/2000/svg">
<g clip-path="url(#clip0)">
<path d="M23.9062 0.843758H3.09375C1.85063 0.843758 0.84375 1.85063 0.84375 3.09376V23.9063C0.84375 25.1494 1.85063 26.1563 3.09375 26.1563H23.9062C25.1494 26.1563 26.1562 25.1494 26.1562 23.9063V3.09376C26.1562 1.85063 25.1494 0.843758 23.9062 0.843758Z" fill="#57CBDA"/>
<path d="M26.1566 17.6085C25.6909 17.6085 25.3129 17.9865 25.3129 18.4523V23.9063C25.3129 24.6814 24.6818 25.3125 23.9066 25.3125H18.4526C17.9869 25.3125 17.6089 25.6905 17.6089 26.1563C17.6089 26.622 17.9869 27 18.4526 27H23.9066C25.6133 27 27.0004 25.6129 27.0004 23.9063V18.4523C27.0004 17.9865 26.6224 17.6085 26.1566 17.6085Z" fill="#212B36"/>
<path d="M0.84375 17.6085C0.378 17.6085 0 17.9865 0 18.4522V23.9062C0 25.6129 1.38713 27 3.09375 27H8.54775C9.0135 27 9.3915 26.622 9.3915 26.1562C9.3915 25.6905 9.0135 25.3125 8.54775 25.3125H3.09375C2.31863 25.3125 1.6875 24.6814 1.6875 23.9062V18.4522C1.6875 17.9865 1.3095 17.6085 0.84375 17.6085Z" fill="#212B36"/>
<path d="M23.9066 1.90735e-06H18.4526C17.9869 1.90735e-06 17.6089 0.378002 17.6089 0.843752C17.6089 1.3095 17.9869 1.6875 18.4526 1.6875H23.9066C24.6818 1.6875 25.3129 2.31863 25.3129 3.09375V8.54775C25.3129 9.0135 25.6909 9.3915 26.1566 9.3915C26.6224 9.3915 27.0004 9.0135 27.0004 8.54775V3.09375C27.0004 1.38713 25.6133 1.90735e-06 23.9066 1.90735e-06Z" fill="#212B36"/>
<path d="M8.54775 1.90735e-06H3.09375C1.38713 1.90735e-06 0 1.38713 0 3.09375V8.54775C0 9.0135 0.378 9.3915 0.84375 9.3915C1.3095 9.3915 1.6875 9.0135 1.6875 8.54775V3.09375C1.6875 2.31863 2.31863 1.6875 3.09375 1.6875H8.54775C9.0135 1.6875 9.3915 1.3095 9.3915 0.843752C9.3915 0.378002 9.0135 1.90735e-06 8.54775 1.90735e-06Z" fill="#212B36"/>
<path d="M10.6875 14.625H4.21875C3.753 14.625 3.375 15.003 3.375 15.4688V22.7813C3.375 23.247 3.753 23.625 4.21875 23.625H10.6875C11.1533 23.625 11.5312 23.247 11.5312 22.7813V15.4688C11.5312 15.003 11.1533 14.625 10.6875 14.625ZM5.0625 16.3125H9.84375V21.9375H5.0625V16.3125Z" fill="#212B36"/>
<path d="M23.9062 3.375H16.5937C16.128 3.375 15.75 3.753 15.75 4.21875V8.15625C15.75 8.622 16.128 9 16.5937 9C17.0595 9 17.4375 8.622 17.4375 8.15625V5.0625H23.0625V9.5625H18.8437C18.378 9.5625 18 9.9405 18 10.4062C18 10.872 18.378 11.25 18.8437 11.25H23.9062C24.372 11.25 24.75 10.872 24.75 10.4062V4.21875C24.75 3.753 24.372 3.375 23.9062 3.375Z" fill="#212B36"/>
<path d="M22.7812 16.875H17.7188C17.253 16.875 16.875 17.253 16.875 17.7188V22.7813C16.875 23.247 17.253 23.625 17.7188 23.625H22.7812C23.247 23.625 23.625 23.247 23.625 22.7813V17.7188C23.625 17.253 23.247 16.875 22.7812 16.875ZM18.5625 18.5625H21.9375V21.9375H18.5625V18.5625Z" fill="#212B36"/>
<path d="M13.7813 11.25H4.21875C3.753 11.25 3.375 11.628 3.375 12.0938C3.375 12.5595 3.753 12.9375 4.21875 12.9375H12.9375V21.6563C12.9375 22.122 13.3155 22.5 13.7813 22.5C14.247 22.5 14.625 22.122 14.625 21.6563V12.0938C14.625 11.628 14.247 11.25 13.7813 11.25Z" fill="#212B36"/>
<path d="M16.5937 11.25C16.128 11.25 15.75 11.628 15.75 12.0938V13.7813C15.75 14.247 16.128 14.625 16.5937 14.625H22.7812C23.247 14.625 23.625 14.247 23.625 13.7813C23.625 13.3155 23.247 12.9375 22.7812 12.9375H17.4375V12.0938C17.4375 11.628 17.0595 11.25 16.5937 11.25Z" fill="#212B36"/>
<path d="M10.4063 3.37501H4.21875C3.753 3.37501 3.375 3.75301 3.375 4.21876V8.71875C3.375 9.1845 3.753 9.5625 4.21875 9.5625H10.4063C10.872 9.5625 11.25 9.1845 11.25 8.71875V4.21876C11.25 3.75301 10.872 3.37501 10.4063 3.37501ZM5.0625 5.06251H9.5625V7.875H5.0625V5.06251Z" fill="#212B36"/>
<path d="M13.2188 5.60138C13.6845 5.60138 14.0625 5.97938 14.0625 6.44513V9.25762C14.0625 9.72337 13.6845 10.1014 13.2188 10.1014C12.753 10.1014 12.375 9.7245 12.375 9.25762V6.44513C12.375 5.97938 12.753 5.60138 13.2188 5.60138Z" fill="#212B36"/>
</g>
<defs>
<clipPath id="clip0">
<rect width="27" height="27" fill="white" transform="matrix(1 0 0 -1 0 27)"/>
</clipPath>
</defs>
</svg>
