<svg width="25" height="27" viewBox="0 0 25 27" fill="none" xmlns="http://www.w3.org/2000/svg">
<path d="M1.05371 7.84635C1.05371 7.84635 2.11227 4.95703 4.9344 4.95703H20.3049C20.3049 4.95703 23.309 5.23969 23.9348 7.43818C24.5605 9.63668 22.1707 22.9827 22.1707 22.9827L18.996 26.1937L8.91364 26.5591L4.83376 25.418L2.26349 22.0145L1.05371 7.84635Z" fill="#57CBDA"/>
<path d="M12.4628 3.33808C9.09883 3.33808 5.94453 4.85367 3.57554 7.60535C3.45128 7.74942 3.38281 7.93413 3.38281 8.12531C3.38281 8.31649 3.45128 8.5012 3.57554 8.64527L7.84263 13.6055C7.91611 13.6911 8.00695 13.7598 8.10897 13.8068C8.211 13.8539 8.32184 13.8782 8.43397 13.8781H16.4889C16.6011 13.8782 16.7119 13.8539 16.8139 13.8068C16.9159 13.7598 17.0068 13.6911 17.0803 13.6055L21.3489 8.64316C21.4732 8.49909 21.5416 8.31438 21.5416 8.1232C21.5416 7.93202 21.4732 7.74731 21.3489 7.60324C18.981 4.85156 15.8256 3.33808 12.4628 3.33808ZM12.0023 12.2955L12.4628 11.2852L12.9232 12.2934L12.0023 12.2955ZM16.1338 12.2955H14.6477L13.1725 9.06503C13.1101 8.92723 13.0099 8.81044 12.8838 8.72855C12.7577 8.64667 12.611 8.60314 12.4612 8.60314C12.3113 8.60314 12.1646 8.64667 12.0385 8.72855C11.9124 8.81044 11.8123 8.92723 11.7499 9.06503L10.2752 12.2955H8.79064L5.21449 8.14007C5.65179 7.68487 6.12587 7.26735 6.63181 6.89185L7.30605 7.70976C7.43882 7.8713 7.6296 7.97289 7.83644 7.99217C8.04327 8.01146 8.2492 7.94686 8.40894 7.81259C8.56867 7.67833 8.66912 7.48539 8.68819 7.27622C8.70726 7.06706 8.64339 6.8588 8.51062 6.69726L7.97821 6.04546C9.12777 5.4355 10.3868 5.06537 11.6806 4.95703V5.93261C11.6806 6.14275 11.7631 6.34429 11.91 6.49288C12.057 6.64147 12.2563 6.72495 12.4641 6.72495C12.6718 6.72495 12.8711 6.64147 13.0181 6.49288C13.165 6.34429 13.2475 6.14275 13.2475 5.93261V4.95703C14.5414 5.06586 15.8005 5.43654 16.9499 6.04705L16.4118 6.69726C16.3459 6.77718 16.2962 6.86943 16.2656 6.96876C16.235 7.06809 16.224 7.17254 16.2333 7.27616C16.2426 7.37978 16.272 7.48053 16.3198 7.57266C16.3676 7.66479 16.4328 7.7465 16.5119 7.81312C16.5909 7.87974 16.6821 7.92997 16.7803 7.96093C16.8786 7.9919 16.9818 8.003 17.0843 7.9936C17.1868 7.9842 17.2864 7.95448 17.3775 7.90614C17.4686 7.8578 17.5494 7.79179 17.6153 7.71187L18.29 6.89396C18.7958 7.26947 19.2697 7.68699 19.7068 8.14218L16.1338 12.2955Z" fill="#212B36"/>
<path d="M23.4494 1.91426C22.9119 1.31196 22.2554 0.830388 21.5224 0.500656C20.7894 0.170925 19.9961 0.000366826 19.1938 2.405e-08H5.72874C4.92644 -7.39036e-05 4.13308 0.170289 3.40004 0.500053C2.66701 0.829817 2.01064 1.31163 1.47347 1.91427C0.936297 2.51692 0.530296 3.22696 0.281768 3.9984C0.0332392 4.76984 -0.0522742 5.58547 0.030767 6.39246L1.61652 21.8051C1.75982 23.2312 2.42206 24.5525 3.47464 25.5125C4.52721 26.4725 5.895 27.0026 7.3124 27H17.6102C19.028 27.0032 20.3965 26.4733 21.4496 25.5133C22.5028 24.5533 23.1656 23.2316 23.3092 21.8051L24.8928 6.39246C24.9751 5.58546 24.8891 4.76998 24.6405 3.99865C24.3919 3.22731 23.9861 2.51724 23.4494 1.91426ZM23.3337 6.22846L21.75 21.6417C21.6462 22.6783 21.165 23.639 20.4 24.3369C19.6349 25.0348 18.6405 25.4201 17.6102 25.418H13.245V20.6634C13.245 20.4533 13.1625 20.2518 13.0156 20.1032C12.8686 19.9546 12.6693 19.8711 12.4615 19.8711C12.2537 19.8711 12.0545 19.9546 11.9075 20.1032C11.7606 20.2518 11.678 20.4533 11.678 20.6634V25.418H7.3124C6.28246 25.4202 5.28845 25.0352 4.52341 24.3379C3.75838 23.6405 3.27693 22.6805 3.17255 21.6443L1.58888 6.22846C1.52872 5.6422 1.59097 5.04971 1.77161 4.48933C1.95224 3.92895 2.24724 3.41318 2.6375 2.97541C3.02776 2.53765 3.50458 2.18765 4.03708 1.94808C4.56959 1.7085 5.14591 1.58469 5.72874 1.58467H19.1938C19.7767 1.58453 20.3531 1.70823 20.8857 1.94775C21.4183 2.18727 21.8951 2.53727 22.2854 2.97507C22.6757 3.41287 22.9707 3.9287 23.1513 4.48915C23.3319 5.04961 23.394 5.64217 23.3337 6.22846Z" fill="#212B36"/>
</svg>
