<?xml version="1.0" encoding="UTF-8"?>
<svg width="30px" height="29px" viewBox="0 0 30 29" version="1.1" xmlns="http://www.w3.org/2000/svg" xmlns:xlink="http://www.w3.org/1999/xlink">
    <title>Group 7</title>
    <g id="Symbols" stroke="none" stroke-width="1" fill="none" fill-rule="evenodd">
        <g id="historico-menu-item/atendimentos" transform="translate(-21.000000, -21.000000)">
            <g id="registro-de-vacinas-copy-2">
                <g id="Oval">
                    <g id="Group-7" transform="translate(21.000000, 22.000000)">
                        <rect id="Rectangle" fill="#57CBDA" x="22.1235116" y="19.3221579" width="5.38721874" height="7.18295832" rx="2.69360937"></rect>
                        <g id="Group-49" transform="translate(0.000000, 6.710080)" fill="#57CBDA">
                            <path d="M7.01455398,0.250444878 L15.7298278,0.250444878 C17.4032628,0.250444878 18.7598499,1.60703196 18.7598499,3.28046693 C18.7598499,4.01567438 18.4925377,4.72580353 18.0077292,5.2785157 L15.1013091,8.59201764 C14.1454509,9.68175611 12.7662465,10.3065865 11.3166967,10.3065865 C9.86876469,10.3065865 8.49275779,9.6754288 7.548194,8.57801991 L4.70823868,5.2785157 C3.61190047,4.00477293 3.75571528,2.08344268 5.02945804,0.987104463 C5.58163571,0.511833086 6.28600539,0.250444878 7.01455398,0.250444878 Z" id="Rectangle"></path>
                        </g>
                        <path d="M20.8396344,22.9903768 C20.8396344,25.1660451 22.6098546,26.9360937 24.7857338,26.9360937 C26.9616131,26.9360937 28.7318333,25.1660451 28.7318333,22.9903768 C28.7318333,21.0849113 27.3739541,19.4906838 25.5749537,19.1240478 L25.5749537,18.4244459 C25.5749537,16.4142347 24.1608821,14.6682813 22.2856957,14.3632511 C19.8669998,13.9697316 17.6827548,15.8146436 17.6827548,18.2555166 L17.6827548,22.5958052 C17.6827548,24.1187993 16.4435743,25.357807 14.9204852,25.357807 C13.3683527,25.357807 12.1056009,24.1187993 12.1056009,22.5958052 L12.1056009,18.5386087 C17.8397043,11.5853612 20.6542729,9.29416235 20.835583,4.02715645 C20.8816209,2.68976887 19.8126488,1.57828674 18.4692913,1.57828674 L16.104315,1.57828674 L16.104315,0.78914337 C16.104315,0.353325792 15.7509549,-6.2521536e-14 15.3150951,-6.2521536e-14 C14.8792353,-6.2521536e-14 14.5258752,0.353325792 14.5258752,0.78914337 L14.5258752,3.94571685 C14.5258752,4.38153443 14.8792353,4.73486022 15.3150951,4.73486022 C15.7509549,4.73486022 16.104315,4.38153443 16.104315,3.94571685 L16.104315,3.15657348 L18.4692913,3.15657348 C18.9155689,3.15657348 19.2735064,3.52557692 19.2580377,3.97286338 C19.1429694,7.31730559 17.8037685,9.29979157 14.9319025,12.731513 L7.70196434,12.731513 C4.82930916,9.29752936 3.48968732,7.31399119 3.37472429,3.97286338 C3.35930819,3.52704999 3.71566728,3.15657348 4.16347065,3.15657348 L6.52844698,3.15657348 L6.52844698,3.94571685 C6.52844698,4.38153443 6.88180703,4.73486022 7.31766687,4.73486022 C7.75352671,4.73486022 8.10688676,4.38153443 8.10688676,3.94571685 L8.10688676,0.78914337 C8.10688676,0.353325792 7.75352671,-6.2521536e-14 7.31766687,-6.2521536e-14 C6.88180703,-6.2521536e-14 6.52844698,0.353325792 6.52844698,0.78914337 L6.52844698,1.57828674 L4.16347065,1.57828674 C2.82511155,1.57828674 1.75093067,2.68477096 1.79717895,4.02715645 C1.97806815,9.28169388 4.7749056,11.56316 10.5271611,18.5386087 L10.5271611,22.5958052 C10.5271611,24.9950114 12.5206779,26.9360937 14.9204852,26.9360937 C17.313926,26.9360937 19.2611946,24.9890666 19.2611946,22.5958052 L19.2611946,18.2555166 C19.2611946,16.8423187 20.5157911,15.6743865 22.0323035,15.9210201 C23.1520486,16.1031544 23.9965139,17.1793881 23.9965139,18.4243933 L23.9965139,19.1239952 C22.1975135,19.4906838 20.8396344,21.0849113 20.8396344,22.9903768 Z M9.03600903,14.3097998 L13.5973843,14.3097998 C13.5935435,14.3143242 12.1415367,16.0235035 11.316381,17.0166668 C10.4923828,16.0247135 9.04074435,14.3153764 9.03600903,14.3097998 Z M27.1533935,22.9903768 C27.1533935,24.2957778 26.0912614,25.357807 24.7857338,25.357807 C23.4802063,25.357807 22.4180741,24.2957778 22.4180741,22.9903768 C22.4180741,21.6849759 23.4802063,20.6229467 24.7857338,20.6229467 C26.0912614,20.6229467 27.1533935,21.6849759 27.1533935,22.9903768 Z" id="Shape" stroke="#212B36" stroke-width="0.718295832" fill="#212B36" fill-rule="nonzero"></path>
                    </g>
                </g>
            </g>
        </g>
    </g>
</svg>