<svg width="108" height="44" viewBox="0 0 108 44" fill="none" xmlns="http://www.w3.org/2000/svg">
<path d="M48.6501 18.7937V16.1389C48.6501 13.3068 50.7266 11.4243 53.8328 11.4243C55.391 11.4243 57.036 11.9426 57.8368 13.2332C58.0027 13.5383 58.0296 13.8999 57.9106 14.2262C57.7916 14.5524 57.5383 14.8118 57.2149 14.9385C56.666 15.1803 56.0262 15.0754 55.5832 14.671C54.9145 14.034 54.234 13.8702 53.8328 13.8702C52.395 13.8702 51.4304 14.8348 51.4304 16.2877V18.6449C51.4304 20.0994 52.395 21.0624 53.8479 21.0624C54.5501 21.0599 55.2163 20.751 55.6718 20.2165C56.043 19.8169 56.5763 19.6397 57.2584 19.9205C58.1194 20.2766 58.208 21.0474 58.0441 21.3884C57.3336 22.8713 55.6284 23.51 53.8479 23.51C50.7266 23.51 48.6501 21.6258 48.6501 18.7937Z" fill="#0080C9"/>
<path fill-rule="evenodd" clip-rule="evenodd" d="M58.8967 18.4645V19.8019C58.8967 22.0321 60.5569 23.51 63.0195 23.51C65.4821 23.51 67.1271 22.0271 67.1271 19.8019V18.4645C67.1271 16.2393 65.4954 14.7563 63.0195 14.7563C60.5435 14.7563 58.8967 16.2393 58.8967 18.4645ZM64.4572 18.5414V19.7284C64.4572 20.6178 63.8938 21.2113 63.0195 21.2113C62.1451 21.2113 61.5666 20.6178 61.5666 19.7284V18.5414C61.5666 17.652 62.1585 17.0585 63.0195 17.0585C63.8804 17.0585 64.4572 17.652 64.4572 18.5414Z" fill="#0080C9"/>
<path d="M75.9812 17.9194V22.1458C75.9812 23.0202 75.5215 23.51 74.6438 23.51C73.7661 23.51 73.3063 23.0202 73.3063 22.1458V18.3641C73.3063 17.5784 72.8048 17.0584 72.0608 17.0584C71.3169 17.0584 70.8153 17.5784 70.8153 18.3641V22.1458C70.8153 23.0202 70.3556 23.51 69.4778 23.51C68.6001 23.51 68.1404 23.0202 68.1404 22.1458V16.1272C68.1404 15.2529 68.5717 14.763 69.3575 14.763C70.0396 14.763 70.4542 15.1191 70.5729 15.7661C71.1744 15.1034 72.0356 14.7369 72.9302 14.763C74.7642 14.7597 75.9812 16.0135 75.9812 17.9194Z" fill="#0080C9"/>
<path fill-rule="evenodd" clip-rule="evenodd" d="M84.9674 18.8974V18.4076C84.9674 16.2142 83.3708 14.7664 80.9684 14.7664C78.566 14.7664 76.9644 16.2208 76.9644 18.4143V19.8688C76.9644 22.0622 78.5961 23.5167 81.0286 23.5167C82.3861 23.5167 83.8239 23.0703 84.3722 22.211C84.6548 21.7596 84.4625 20.9889 83.5129 20.7064C83.1087 20.5655 82.66 20.6566 82.3426 20.9438C81.8244 21.3584 81.3796 21.5072 81.0236 21.5072C80.2077 21.5072 79.6443 20.9003 79.6292 19.9657H83.9008C84.5829 19.9657 84.9674 19.5795 84.9674 18.8974ZM82.3042 18.1869H79.6292C79.6894 17.3259 80.2077 16.7642 80.9667 16.7642C81.7257 16.7642 82.244 17.3276 82.3042 18.1869Z" fill="#0080C9"/>
<path d="M85.6646 19.7867V18.4827C85.6646 16.2424 87.3263 14.7595 89.8023 14.7595C91.0027 14.7595 92.3101 15.0421 92.8567 16.1538C92.9788 16.4316 92.9776 16.7481 92.8533 17.025C92.7291 17.3018 92.4934 17.5132 92.2047 17.6066C91.5076 17.829 91.0478 17.6518 90.8104 17.4395C90.5448 17.1761 90.181 17.0361 89.8073 17.0533C88.933 17.0533 88.3395 17.6468 88.3395 18.5362V19.7232C88.3395 20.6126 88.933 21.2061 89.8224 21.2061C90.2341 21.2028 90.6281 21.0376 90.9191 20.7463C91.1415 20.539 91.5577 20.3167 92.2398 20.539C92.5281 20.6194 92.7719 20.8122 92.9168 21.074C93.0617 21.3358 93.0955 21.6447 93.0106 21.9317C92.7146 23.0886 91.1415 23.5048 89.8224 23.5048C87.3263 23.5099 85.6646 22.032 85.6646 19.7867Z" fill="#0080C9"/>
<path d="M99.3818 22.3229C99.3818 22.9916 98.9973 23.3611 98.3152 23.3611H97.8404C96.075 23.3611 94.903 22.358 94.903 20.84V16.9847H94.6389C93.9567 16.9847 93.5706 16.6136 93.5706 15.9465C93.5706 15.2795 93.9567 14.9083 94.6389 14.9083H94.9732V13.9052C94.9732 13.0309 95.433 12.541 96.2789 12.541C97.1249 12.541 97.5829 13.0309 97.5829 13.9052V14.9083H98.4724C99.1545 14.9083 99.5406 15.2795 99.5406 15.9465C99.5406 16.6136 99.1545 16.9847 98.4724 16.9847H97.5829V20.6945C97.5689 20.8505 97.6226 21.005 97.7305 21.1186C97.8383 21.2322 97.9898 21.2939 98.1463 21.288H98.3169C98.9973 21.2847 99.3818 21.6558 99.3818 22.3229Z" fill="#0080C9"/>
<path fill-rule="evenodd" clip-rule="evenodd" d="M107.938 18.8974V18.4076C107.938 16.2142 106.333 14.7664 103.933 14.7664C101.532 14.7664 99.9302 16.2208 99.9302 18.4143V19.8688C99.9302 22.0622 101.56 23.5167 103.993 23.5167C105.357 23.5167 106.795 23.0703 107.345 22.211C107.626 21.7596 107.433 20.9889 106.484 20.7064C106.08 20.5655 105.631 20.6566 105.313 20.9438C104.795 21.3584 104.35 21.5072 103.994 21.5072C103.179 21.5072 102.615 20.9003 102.6 19.9657H106.872C107.554 19.9657 107.938 19.5795 107.938 18.8974ZM103.938 16.7642C104.697 16.7642 105.215 17.3276 105.275 18.1869H102.6C102.664 17.3259 103.179 16.7642 103.938 16.7642Z" fill="#0080C9"/>
<path d="M49.1101 39.409C48.662 38.65 48.856 37.6185 49.946 37.0919C50.9575 36.6054 51.6579 37.1889 51.9706 37.4614C53.0222 38.3959 53.9768 38.6116 54.8896 38.6116C56.5062 38.6116 57.5963 37.9429 57.5963 36.9565V36.898C57.5963 33.9773 48.7356 36.6054 48.7356 30.7456V30.4915C48.7356 27.6494 51.1681 25.7603 54.8478 25.7603C56.951 25.7603 58.9371 26.429 60.104 27.8049C60.7276 28.5455 60.3581 29.6941 59.3066 30.1455C58.255 30.5968 57.6514 30.1455 57.3004 29.8111C56.6305 29.1273 55.706 28.7536 54.7492 28.7796C53.2311 28.7796 52.2414 29.343 52.2414 30.1806V30.2391C52.2414 33.2768 61.1974 30.5902 61.1974 36.3713V36.6255C61.1974 39.623 58.6261 41.6276 54.791 41.6276C52.5173 41.6276 50.1416 41.1611 49.1101 39.409Z" fill="#50AF47"/>
<path d="M62.5398 36.0019V27.591C62.5398 26.404 63.1834 25.752 64.3704 25.752C65.5574 25.752 66.2095 26.3956 66.2095 27.591V35.808C66.2095 37.3845 67.261 38.416 68.8175 38.416C70.374 38.416 71.4072 37.3845 71.4072 35.808V27.591C71.4072 26.404 72.0491 25.752 73.2378 25.752C74.4265 25.752 75.0668 26.3956 75.0668 27.591V36.0019C75.0668 39.389 72.5758 41.6276 68.8175 41.6276C65.0592 41.6276 62.5398 39.389 62.5398 36.0019Z" fill="#50AF47"/>
<path d="M76.9709 39.409C76.5229 38.65 76.7185 37.6185 77.8068 37.0919C78.8183 36.6054 79.5205 37.1889 79.8314 37.4614C80.883 38.3959 81.8376 38.6116 82.7521 38.6116C84.3671 38.6116 85.4571 37.9429 85.4571 36.9565V36.898C85.4571 33.9773 76.5964 36.6054 76.5964 30.7456V30.4915C76.5964 27.6494 79.0289 25.7603 82.7086 25.7603C84.8118 25.7603 86.7979 26.429 87.9665 27.8049C88.5884 28.5455 88.219 29.6941 87.1674 30.1455C86.1158 30.5968 85.5123 30.1455 85.1612 29.8111C84.4914 29.1272 83.5669 28.7533 82.61 28.7796C81.092 28.7796 80.1023 29.343 80.1023 30.1806V30.2391C80.1023 33.2768 89.0582 30.5902 89.0582 36.3713V36.6255C89.0582 39.623 86.4886 41.6276 82.6535 41.6276C80.3781 41.6276 78.0024 41.1611 76.9709 39.409Z" fill="#50AF47"/>
<path fill-rule="evenodd" clip-rule="evenodd" d="M36.4175 29.0405C36.3255 29.0405 36.2352 29.0405 36.145 29.0405C32.3081 29.1926 29.1634 32.451 29.1768 36.44C29.1319 37.1339 29.0056 37.8201 28.8006 38.4846C27.8181 41.4728 25.0214 43.4869 21.8759 43.4717C19.9683 43.4881 18.1327 42.7439 16.7752 41.4036C15.1217 39.7853 14.7272 38.284 14.4831 36.134C14.4561 32.3351 11.4527 29.2258 7.65702 29.0672C7.54501 29.0672 7.433 29.0756 7.32266 29.0756C7.21232 29.0756 7.08024 29.0756 6.96154 29.0672H6.92309C3.07814 28.8551 0.0689698 25.6756 0.0686035 21.8248C0.0695264 17.8198 3.31599 14.5734 7.32099 14.5725C9.74971 14.5721 12.0173 15.7878 13.3613 17.8108C13.5797 18.1264 13.7673 18.4623 13.9214 18.8139C14.3334 19.7164 14.5553 20.6941 14.5734 21.6861C14.5951 21.88 14.6168 22.0806 14.6402 22.2846C14.8595 25.7118 17.4494 28.5169 20.8482 29.0085C24.247 29.5001 27.5256 27.5438 28.707 24.3192C28.9624 23.5986 29.1188 22.8467 29.1718 22.084C29.1718 21.9887 29.1718 21.8934 29.1718 21.7964C29.1739 17.8679 32.3015 14.6543 36.2285 14.5457L36.2386 14.5374H36.5378L36.3974 14.5474H36.4275C40.3904 14.6076 43.5714 17.8372 43.5714 21.8006C43.5714 25.764 40.3904 28.9937 36.4275 29.0538L36.4175 29.0405Z" fill="url(#paint0_linear)"/>
<path fill-rule="evenodd" clip-rule="evenodd" d="M15.8213 3.22984C17.7416 0.350531 21.4285 -0.77118 24.627 0.550762C27.8255 1.8727 29.6447 5.27008 28.9719 8.66498C28.2991 12.0599 25.3217 14.5067 21.8608 14.5089C19.9372 14.5123 18.0915 13.7494 16.7316 12.389C14.2821 9.94402 13.9009 6.10915 15.8213 3.22984Z" fill="url(#paint1_linear)"/>
<defs>
<linearGradient id="paint0_linear" x1="-228.069" y1="-183.267" x2="-228.069" y2="-226.873" gradientUnits="userSpaceOnUse">
<stop stop-color="#50AF47"/>
<stop offset="0.46" stop-color="#319B8A"/>
<stop offset="0.82" stop-color="#1C8DB8"/>
<stop offset="1" stop-color="#1488CA"/>
</linearGradient>
<linearGradient id="paint1_linear" x1="-289.84" y1="-197.808" x2="-275.331" y2="-197.808" gradientUnits="userSpaceOnUse">
<stop stop-color="#FFCC00"/>
<stop offset="1" stop-color="#F39200"/>
</linearGradient>
</defs>
</svg>
